<svg xmlns="http://www.w3.org/2000/svg" width="300" height="250" viewBox="0 0 300 250"><defs><radialGradient id="g-s103"><stop offset="0" stop-color="#D6962C" stop-opacity="0.34"/><stop offset="0.5" stop-color="#D6962C" stop-opacity="0.119"/><stop offset="1" stop-color="#D6962C" stop-opacity="0"/></radialGradient><linearGradient id="sheen-s104" x1="0" y1="1" x2="1" y2="0"><stop offset="0" stop-color="#8B5E1A"/><stop offset="0.38" stop-color="#D6962C"/><stop offset="0.56" stop-color="#F1C364"/><stop offset="0.74" stop-color="#D6962C"/><stop offset="1" stop-color="#8B5E1A"/></linearGradient></defs><rect width="300" height="250" fill="#F2EEE5"/><circle cx="270.0" cy="30.0" r="190.0" fill="url(#g-s103)"/><g opacity="0.2" transform="translate(270.00,30.00) rotate(-15) scale(3.40834) translate(-35.225,62.820)"><path class="mark" d="M5.88507 -58.2714V-67.369H16.3847L25.7719 -65.7956L26.4302 -67.4381L18.669 -72.8821L11.2665 -80.3931L17.6519 -86.7785L25.163 -79.3761L30.607 -71.6149L32.2494 -72.2732L30.6761 -81.6604V-92.16H39.7737V-81.6604L38.2004 -72.2732L39.8428 -71.6149L45.2868 -79.3761L52.7978 -86.7785L59.1832 -80.3931L51.7808 -72.8821L44.0196 -67.4381L44.6779 -65.7956L54.0651 -67.369H64.5647V-58.2714H54.0651L44.6779 -59.8447L44.0196 -58.2023L51.7808 -52.7583L59.1832 -45.2472L52.7978 -38.8618L45.2868 -46.2642L39.8428 -54.0254L38.2004 -53.3672L39.7737 -43.98V-33.4804H30.6761V-43.98L32.2494 -53.3672L30.607 -54.0254L25.163 -46.2642L17.6519 -38.8618L11.2665 -45.2472L18.669 -52.7583L26.4302 -58.2023L25.7719 -59.8447L16.3847 -58.2714Z" fill="url(#sheen-s104)"/></g><g transform="translate(25.50,201.32) scale(0.24658)"><path d="M30.6465 94.0032Q18.0831 94.0032 9.90884 88.4736Q1.73458 82.944 0 72.237L13.959 68.725Q14.9037 73.7477 17.2603 76.6228Q19.617 79.4978 23.096 80.7206Q26.575 81.9433 30.6465 81.9433Q36.808 81.9433 39.9299 79.6953Q43.0518 77.4473 43.0518 73.9584Q43.0518 70.4465 40.0846 68.6971Q37.1174 66.9477 31.025 65.8484L26.9239 65.121Q20.216 63.8505 14.6929 61.5695Q9.16992 59.2885 5.85051 55.2763Q2.5311 51.264 2.5311 44.9741Q2.5311 35.4849 9.53691 30.3651Q16.5427 25.2452 27.9903 25.2452Q38.9179 25.2452 46.0553 30.1281Q53.1928 35.0109 55.3388 43.1638L41.3403 47.3505Q40.2409 41.8868 36.7158 39.5959Q33.1907 37.3051 27.9903 37.3051Q22.8129 37.3051 19.9889 39.1467Q17.1649 40.9882 17.1649 44.3224Q17.1649 47.8508 20.0284 49.5261Q22.8919 51.2014 27.783 52.0605L31.8841 52.7879Q39.1186 54.0584 44.9823 56.2077Q50.846 58.357 54.2658 62.3149Q57.6856 66.2729 57.6856 72.9808Q57.6856 83.0427 50.3507 88.523Q43.0157 94.0032 30.6465 94.0032Z M96.3204 92.16Q90.0996 92.16 86.3374 88.3864Q82.5753 84.6127 82.5753 78.2438V39.6289H65.5126V27.0884H82.5753V6.16817H97.6436V27.0884H116.332V39.6289H97.6436V75.6699Q97.6436 79.6196 101.376 79.6196H114.43V92.16Z M159.134 94.0032Q149.368 94.0032 141.953 89.856Q134.537 85.7088 130.401 78.15Q126.266 70.5913 126.266 60.4142V58.8343Q126.266 48.6341 130.347 41.0869Q134.429 33.5396 141.767 29.3924Q149.105 25.2452 158.755 25.2452Q168.251 25.2452 175.326 29.4319Q182.401 33.6186 186.351 41.0968Q190.301 48.5749 190.301 58.5348V63.9426H141.551Q141.838 71.5787 146.957 76.1949Q152.077 80.8111 159.568 80.8111Q166.892 80.8111 170.471 77.5986Q174.051 74.3862 175.923 70.3082L188.355 76.7265Q186.489 80.3109 183 84.3494Q179.511 88.388 173.764 91.1956Q168.018 94.0032 159.134 94.0032ZM141.683 52.5345H174.992Q174.465 46.0438 170.07 42.2406Q165.674 38.4374 158.647 38.4374Q151.425 38.4374 147.061 42.2406Q142.697 46.0438 141.683 52.5345Z M205.918 92.16V0H220.987V92.16Z M240.281 92.16V0H255.349V92.16Z M294.803 94.0032Q287.872 94.0032 282.354 91.5906Q276.835 89.178 273.621 84.5387Q270.407 79.8994 270.407 73.254Q270.407 66.5856 273.621 62.101Q276.835 57.6164 282.505 55.347Q288.174 53.0775 295.409 53.0775H314.282V49.1377Q314.282 43.9768 311.109 40.7726Q307.936 37.5684 301.225 37.5684Q294.645 37.5684 291.283 40.6294Q287.921 43.6905 286.861 48.6045L272.925 43.9767Q274.505 38.8586 277.983 34.6423Q281.46 30.4259 287.284 27.8356Q293.108 25.2452 301.442 25.2452Q314.206 25.2452 321.561 31.6734Q328.916 38.1016 328.916 50.1844V75.7159Q328.916 79.6657 332.602 79.6657H338.03V92.16H327.431Q322.698 92.16 319.677 89.7787Q316.655 87.3973 316.655 83.4015V83.1316H314.361Q313.627 84.9419 311.634 87.5438Q309.641 90.1456 305.622 92.0744Q301.603 94.0032 294.803 94.0032ZM297.285 81.68Q304.816 81.68 309.549 77.4045Q314.282 73.1289 314.282 65.8484V64.4857H296.41Q291.41 64.4857 288.443 66.6334Q285.476 68.781 285.476 72.7965Q285.476 76.812 288.574 79.246Q291.673 81.68 297.285 81.68Z" fill="#10100F"/><path d="M346.864 33.8886V24.791H357.364L366.751 26.3644L367.409 24.7219L359.648 19.2779L352.245 11.7669L358.631 5.38148L366.142 12.7839L371.586 20.5451L373.228 19.8868L371.655 10.4996V0H380.753V10.4996L379.179 19.8868L380.822 20.5451L386.266 12.7839L393.777 5.38148L400.162 11.7669L392.76 19.2779L384.998 24.7219L385.657 26.3644L395.044 24.791H405.544V33.8886H395.044L385.657 32.3153L384.998 33.9577L392.76 39.4017L400.162 46.9128L393.777 53.2982L386.266 45.8958L380.822 38.1346L379.179 38.7928L380.753 48.18V58.6796H371.655V48.18L373.228 38.7928L371.586 38.1346L366.142 45.8958L358.631 53.2982L352.245 46.9128L359.648 39.4017L367.409 33.9577L366.751 32.3153L357.364 33.8886Z" fill="#D6962C"/></g><rect x="25.50" y="178.07" width="32.50" height="3.00" rx="1.5" fill="url(#sheen-s104)"/><path d="M27.075 156.696V145.536H29.91V156.696ZM28.4925 144.231Q27.7275 144.231 27.1988 143.736Q26.67 143.241 26.67 142.431Q26.67 141.621 27.1988 141.126Q27.7275 140.631 28.4925 140.631Q29.28 140.631 29.7975 141.126Q30.315 141.621 30.315 142.431Q30.315 143.241 29.7975 143.736Q29.28 144.231 28.4925 144.231Z M37.335 156.696Q36.2325 156.696 35.5463 156.009Q34.86 155.323 34.86 154.176V147.876H32.07V145.536H34.86V142.071H37.695V145.536H40.755V147.876H37.695V153.681Q37.695 154.356 38.325 154.356H40.485V156.696Z M45.1088 157.011Q44.1975 157.011 43.5788 156.409Q42.96 155.808 42.96 154.868Q42.96 153.928 43.5788 153.332Q44.1975 152.736 45.1088 152.736Q46.02 152.736 46.6275 153.337Q47.235 153.938 47.235 154.878Q47.235 155.818 46.6275 156.414Q46.02 157.011 45.1088 157.011Z" fill="#10100F"/><path d="M26.985 129.246V113.496H29.955V129.246Z M37.29 129.246Q36.1875 129.246 35.5013 128.559Q34.815 127.873 34.815 126.726V120.426H32.025V118.086H34.815V114.621H37.65V118.086H40.71V120.426H37.65V126.231Q37.65 126.906 38.28 126.906H40.44V129.246Z M48.99 133.746V118.086H51.78V119.436H52.185Q52.5675 118.783 53.3775 118.277Q54.1875 117.771 55.695 117.771Q57.045 117.771 58.1925 118.434Q59.34 119.098 60.0375 120.381Q60.735 121.663 60.735 123.486V123.846Q60.735 125.668 60.0375 126.951Q59.34 128.233 58.1925 128.897Q57.045 129.561 55.695 129.561Q54.6825 129.561 53.9963 129.324Q53.31 129.088 52.8938 128.717Q52.4775 128.346 52.23 127.963H51.825V133.746ZM54.84 127.086Q56.1675 127.086 57.0338 126.242Q57.9 125.398 57.9 123.778V123.553Q57.9 121.933 57.0225 121.089Q56.145 120.246 54.84 120.246Q53.535 120.246 52.6575 121.089Q51.78 121.933 51.78 123.553V123.778Q51.78 125.398 52.6575 126.242Q53.535 127.086 54.84 127.086Z M63.345 129.246V118.086H66.135V119.346H66.54Q66.7875 118.671 67.3613 118.356Q67.935 118.041 68.7 118.041H70.05V120.561H68.655Q67.575 120.561 66.8775 121.134Q66.18 121.708 66.18 122.901V129.246Z M77.16 129.561Q75.495 129.561 74.1675 128.886Q72.84 128.211 72.075 126.928Q71.31 125.646 71.31 123.846V123.486Q71.31 121.686 72.075 120.403Q72.84 119.121 74.1675 118.446Q75.495 117.771 77.16 117.771Q78.825 117.771 80.1525 118.446Q81.48 119.121 82.245 120.403Q83.01 121.686 83.01 123.486V123.846Q83.01 125.646 82.245 126.928Q81.48 128.211 80.1525 128.886Q78.825 129.561 77.16 129.561ZM77.16 127.041Q78.465 127.041 79.32 126.197Q80.175 125.353 80.175 123.778V123.553Q80.175 121.978 79.3313 121.134Q78.4875 120.291 77.16 120.291Q75.855 120.291 75 121.134Q74.145 121.978 74.145 123.553V123.778Q74.145 125.353 75 126.197Q75.855 127.041 77.16 127.041Z M87.645 129.246 84.09 118.086H87.105L89.6925 127.176H90.0975L92.685 118.086H95.7L92.145 129.246Z M102.405 129.561Q100.74 129.561 99.4688 128.852Q98.1975 128.143 97.4888 126.849Q96.78 125.556 96.78 123.801V123.531Q96.78 121.776 97.4775 120.482Q98.175 119.188 99.435 118.479Q100.695 117.771 102.36 117.771Q104.002 117.771 105.218 118.502Q106.433 119.233 107.108 120.527Q107.782 121.821 107.782 123.531V124.498H99.66Q99.705 125.646 100.515 126.366Q101.325 127.086 102.495 127.086Q103.688 127.086 104.25 126.568Q104.812 126.051 105.105 125.421L107.422 126.636Q107.108 127.221 106.511 127.907Q105.915 128.593 104.925 129.077Q103.935 129.561 102.405 129.561ZM99.6825 122.383H104.903Q104.812 121.416 104.126 120.831Q103.44 120.246 102.338 120.246Q101.19 120.246 100.515 120.831Q99.84 121.416 99.6825 122.383Z M114.938 129.561Q112.755 129.561 111.36 128.616Q109.965 127.671 109.672 125.916L112.282 125.241Q112.44 126.028 112.811 126.478Q113.183 126.928 113.734 127.119Q114.285 127.311 114.938 127.311Q115.928 127.311 116.4 126.962Q116.873 126.613 116.873 126.096Q116.873 125.578 116.423 125.297Q115.973 125.016 114.983 124.836L114.353 124.723Q113.183 124.498 112.215 124.104Q111.248 123.711 110.662 123.013Q110.078 122.316 110.078 121.213Q110.078 119.548 111.293 118.659Q112.508 117.771 114.488 117.771Q116.355 117.771 117.593 118.603Q118.83 119.436 119.213 120.786L116.58 121.596Q116.4 120.741 115.849 120.381Q115.297 120.021 114.488 120.021Q113.678 120.021 113.25 120.302Q112.823 120.583 112.823 121.078Q112.823 121.618 113.273 121.877Q113.723 122.136 114.488 122.271L115.118 122.383Q116.378 122.608 117.401 122.979Q118.425 123.351 119.021 124.037Q119.618 124.723 119.618 125.893Q119.618 127.648 118.346 128.604Q117.075 129.561 114.938 129.561Z" fill="#10100F"/></svg>