<svg xmlns="http://www.w3.org/2000/svg" width="1200" height="630" viewBox="0 0 1200 630"><defs><radialGradient id="g-s19"><stop offset="0" stop-color="#D6962C" stop-opacity="0.34"/><stop offset="0.5" stop-color="#D6962C" stop-opacity="0.119"/><stop offset="1" stop-color="#D6962C" stop-opacity="0"/></radialGradient><linearGradient id="sheen-s20" x1="0" y1="1" x2="1" y2="0"><stop offset="0" stop-color="#8B5E1A"/><stop offset="0.38" stop-color="#D6962C"/><stop offset="0.56" stop-color="#F1C364"/><stop offset="0.74" stop-color="#D6962C"/><stop offset="1" stop-color="#8B5E1A"/></linearGradient></defs><rect width="1200" height="630" fill="#F2EEE5"/><circle cx="1008.0" cy="226.8" r="568.6" fill="url(#g-s19)"/><g opacity="0.2" transform="translate(1008.00,226.80) rotate(0) scale(17.79132) translate(-9.810,-10.240)"><g data-mark="hive"><path d="M0.000 -6.080L5.800 -3.040L5.800 3.040L0.000 6.080L-5.800 3.040L-5.800 -3.040Z" fill="none" stroke="url(#sheen-s20)" stroke-width="1" stroke-linejoin="miter"/><path d="M13.080 -6.080L18.880 -3.040L18.880 3.040L13.080 6.080L7.280 3.040L7.280 -3.040Z" fill="none" stroke="url(#sheen-s20)" stroke-width="1" stroke-linejoin="miter"/><path d="M6.540 4.160L12.340 7.200L12.340 13.280L6.540 16.320L0.740 13.280L0.740 7.200Z" fill="none" stroke="url(#sheen-s20)" stroke-width="1" stroke-linejoin="miter"/><path d="M19.620 3.660L25.897 6.950L25.897 13.530L19.620 16.820L13.343 13.530L13.343 6.950Z" fill="url(#sheen-s20)"/><path d="M0.000 13.900L6.277 17.190L6.277 23.770L0.000 27.060L-6.277 23.770L-6.277 17.190Z" fill="url(#sheen-s20)" opacity="0.55"/><path d="M13.080 14.400L18.880 17.440L18.880 23.520L13.080 26.560L7.280 23.520L7.280 17.440Z" fill="none" stroke="url(#sheen-s20)" stroke-width="1" stroke-linejoin="miter"/></g></g><g transform="translate(90.00,220.22) scale(0.95182)"><path d="M33.9083 68.758Q24.1657 68.758 16.4786 64.7737Q8.79142 60.7894 4.39571 53.2965Q0 45.8035 0 35.3862V33.3718Q0 22.9544 4.39571 15.4615Q8.79142 7.96854 16.4786 3.98427Q24.1657 0 33.9083 0Q43.6509 0 51.3381 3.98427Q59.0252 7.96854 63.4209 15.4615Q67.8166 22.9544 67.8166 33.3718V35.3862Q67.8166 45.8035 63.4209 53.2965Q59.0252 60.7894 51.3381 64.7737Q43.6509 68.758 33.9083 68.758ZM33.9083 55.3486Q42.1895 55.3486 47.4689 50.0198Q52.7484 44.691 52.7484 35.0142V33.7437Q52.7484 24.067 47.5233 18.7382Q42.2981 13.4094 33.9083 13.4094Q25.6502 13.4094 20.3592 18.7382Q15.0683 24.067 15.0683 33.7437V35.0142Q15.0683 44.691 20.3592 50.0198Q25.6502 55.3486 33.9083 55.3486Z M176.569 68.758Q169.637 68.758 164.119 66.3453Q158.601 63.9327 155.387 59.2935Q152.173 54.6542 152.173 48.0088Q152.173 41.3403 155.387 36.8558Q158.601 32.3712 164.27 30.1017Q169.94 27.8323 177.174 27.8323H196.047V23.8925Q196.047 18.7316 192.874 15.5274Q189.701 12.3232 182.99 12.3232Q176.411 12.3232 173.049 15.3842Q169.686 18.4452 168.627 23.3593L154.691 18.7315Q156.27 13.6133 159.748 9.39702Q163.225 5.18071 169.049 2.59035Q174.874 0 183.208 0Q195.972 0 203.326 6.42816Q210.681 12.8563 210.681 24.9392V50.4707Q210.681 54.4204 214.368 54.4204H219.795V66.9148H209.197Q204.464 66.9148 201.442 64.5334Q198.42 62.1521 198.42 58.1563V57.8864H196.126Q195.392 59.6967 193.399 62.2985Q191.406 64.9004 187.388 66.8292Q183.369 68.758 176.569 68.758ZM179.05 56.4348Q186.581 56.4348 191.314 52.1592Q196.047 47.8837 196.047 40.6031V39.2405H178.175Q173.175 39.2405 170.208 41.3881Q167.241 43.5358 167.241 47.5513Q167.241 51.5668 170.34 54.0008Q173.439 56.4348 179.05 56.4348Z M227.767 34.6423V32.6279Q227.767 22.3817 231.86 15.0863Q235.953 7.79081 242.768 3.8954Q249.582 0 257.706 0Q266.935 0 271.762 3.33256Q276.589 6.66512 278.81 10.4107H281.042V1.8432H295.801V79.33Q295.801 85.6989 292.104 89.4725Q288.408 93.2462 282.079 93.2462H238.369V80.0541H277.023Q280.779 80.0541 280.779 76.1043V57.2775H278.547Q277.161 59.5683 274.665 61.8904Q272.168 64.2125 268.057 65.7414Q263.946 67.2702 257.706 67.2702Q249.582 67.2702 242.756 63.3748Q235.93 59.4794 231.848 52.1724Q227.767 44.8655 227.767 34.6423ZM261.938 54.0781Q270.151 54.0781 275.573 48.8612Q280.996 43.6443 280.996 34.2704V32.9999Q280.996 23.4943 275.627 18.3432Q270.259 13.1921 261.938 13.1921Q253.749 13.1921 248.315 18.3432Q242.881 23.4943 242.881 32.9999V34.2704Q242.881 43.6443 248.315 48.8612Q253.749 54.0781 261.938 54.0781Z M344.764 68.758Q334.998 68.758 327.583 64.6108Q320.167 60.4636 316.031 52.9048Q311.896 45.346 311.896 35.1689V33.589Q311.896 23.3889 315.977 15.8416Q320.059 8.2944 327.397 4.1472Q334.735 0 344.385 0Q353.881 0 360.956 4.1867Q368.031 8.37341 371.981 15.8515Q375.931 23.3297 375.931 33.2895V38.6974H327.181Q327.468 46.3334 332.587 50.9496Q337.707 55.5658 345.198 55.5658Q352.522 55.5658 356.101 52.3534Q359.681 49.141 361.553 45.0629L373.985 51.4813Q372.119 55.0656 368.63 59.1042Q365.141 63.1428 359.394 65.9504Q353.648 68.758 344.764 68.758ZM327.313 27.2892H360.622Q360.095 20.7986 355.7 16.9954Q351.304 13.1921 344.277 13.1921Q337.055 13.1921 332.691 16.9954Q328.327 20.7986 327.313 27.2892Z M391.548 66.9148V1.8432H406.353V10.9769H408.585Q410.303 7.25429 414.832 3.99908Q419.361 0.743866 428.435 0.743866Q435.956 0.743866 441.695 4.12911Q447.434 7.51435 450.651 13.5903Q453.868 19.6663 453.868 27.9442V66.9148H438.8V29.1226Q438.8 21.1969 434.891 17.3492Q430.983 13.5015 423.9 13.5015Q415.872 13.5015 411.244 18.8237Q406.617 24.146 406.617 33.9445V66.9148Z" fill="#10100F"/><path d="M73.9979 66.9148 98.2261 34.0696 74.3764 1.8432H91.9626L107.9 24.3499H110.131L126.068 1.8432H143.654L119.805 34.0696L144.033 66.9148H126.206L110.131 44.0065H107.9L91.8244 66.9148Z" fill="#D6962C"/></g><path d="M92.8514 415.8V388.458H100.781L106.751 412.995H107.372L113.342 388.458H121.271V415.8H117.174V391.44H116.553L110.608 415.8H103.515L97.5699 391.44H96.9488V415.8Z M127.119 415.8V396.563H131.138V415.8ZM129.128 393.942Q127.964 393.942 127.163 393.178Q126.361 392.415 126.361 391.2Q126.361 389.972 127.163 389.215Q127.964 388.458 129.128 388.458Q130.331 388.458 131.114 389.215Q131.896 389.972 131.896 391.2Q131.896 392.415 131.114 393.178Q130.331 393.942 129.128 393.942Z M144.987 416.347Q141.321 416.347 138.892 414.706Q136.464 413.066 135.942 409.759L139.694 408.847Q139.981 410.46 140.735 411.385Q141.489 412.31 142.596 412.703Q143.704 413.097 144.987 413.097Q146.924 413.097 147.956 412.369Q148.988 411.64 148.988 410.468Q148.988 409.283 148.009 408.733Q147.03 408.183 145.133 407.843L143.793 407.607Q141.844 407.244 140.247 406.574Q138.649 405.904 137.695 404.734Q136.741 403.564 136.741 401.746Q136.741 399.006 138.789 397.511Q140.837 396.016 144.192 396.016Q147.434 396.016 149.521 397.468Q151.607 398.92 152.217 401.414L148.481 402.492Q148.141 400.735 147.006 400Q145.871 399.266 144.192 399.266Q142.526 399.266 141.592 399.87Q140.659 400.475 140.659 401.594Q140.659 402.75 141.577 403.295Q142.495 403.84 144.069 404.115L145.409 404.351Q147.514 404.715 149.216 405.346Q150.918 405.976 151.912 407.134Q152.906 408.291 152.906 410.24Q152.906 413.163 150.761 414.755Q148.615 416.347 144.987 416.347Z M165.493 416.347Q161.827 416.347 159.399 414.706Q156.97 413.066 156.449 409.759L160.201 408.847Q160.488 410.46 161.242 411.385Q161.995 412.31 163.103 412.703Q164.21 413.097 165.493 413.097Q167.431 413.097 168.463 412.369Q169.495 411.64 169.495 410.468Q169.495 409.283 168.515 408.733Q167.536 408.183 165.64 407.843L164.3 407.607Q162.351 407.244 160.753 406.574Q159.156 405.904 158.202 404.734Q157.248 403.564 157.248 401.746Q157.248 399.006 159.295 397.511Q161.343 396.016 164.698 396.016Q167.94 396.016 170.027 397.468Q172.114 398.92 172.723 401.414L168.987 402.492Q168.647 400.735 167.513 400Q166.378 399.266 164.698 399.266Q163.032 399.266 162.099 399.87Q161.165 400.475 161.165 401.594Q161.165 402.75 162.083 403.295Q163.001 403.84 164.575 404.115L165.915 404.351Q168.02 404.715 169.722 405.346Q171.424 405.976 172.419 407.134Q173.413 408.291 173.413 410.24Q173.413 413.163 171.267 414.755Q169.122 416.347 165.493 416.347Z M178.131 415.8V396.563H182.15V415.8ZM180.141 393.942Q178.977 393.942 178.175 393.178Q177.373 392.415 177.373 391.2Q177.373 389.972 178.175 389.215Q178.977 388.458 180.141 388.458Q181.344 388.458 182.126 389.215Q182.908 389.972 182.908 391.2Q182.908 392.415 182.126 393.178Q181.344 393.942 180.141 393.942Z M197.157 416.347Q194.267 416.347 192.01 415.155Q189.753 413.962 188.473 411.743Q187.193 409.523 187.193 406.467V405.896Q187.193 402.84 188.473 400.62Q189.753 398.401 192.01 397.208Q194.267 396.016 197.157 396.016Q200.048 396.016 202.304 397.208Q204.561 398.401 205.841 400.62Q207.121 402.84 207.121 405.896V406.467Q207.121 409.523 205.841 411.743Q204.561 413.962 202.304 415.155Q200.048 416.347 197.157 416.347ZM197.157 412.765Q199.805 412.765 201.454 411.068Q203.102 409.371 203.102 406.363V406Q203.102 402.992 201.466 401.295Q199.831 399.598 197.157 399.598Q194.523 399.598 192.867 401.295Q191.212 402.992 191.212 406V406.363Q191.212 409.371 192.867 411.068Q194.523 412.765 197.157 412.765Z M212.152 415.8V396.563H216.094V399.444H216.715Q217.265 398.25 218.664 397.237Q220.062 396.223 222.829 396.223Q225.027 396.223 226.732 397.197Q228.438 398.17 229.41 399.959Q230.382 401.748 230.382 404.238V415.8H226.362V404.547Q226.362 402.031 225.117 400.842Q223.872 399.653 221.661 399.653Q219.164 399.653 217.668 401.307Q216.172 402.961 216.172 406.08V415.8Z M256.15 416.347Q251.167 416.347 248.233 413.515Q245.299 410.683 245.299 405.342V398.916Q245.299 393.575 248.233 390.743Q251.167 387.911 256.15 387.911Q261.093 387.911 263.764 390.638Q266.436 393.364 266.436 398.1V398.321H262.26V397.971Q262.26 395.221 260.762 393.461Q259.265 391.7 256.15 391.7Q253.046 391.7 251.286 393.598Q249.525 395.497 249.525 398.838V405.42Q249.525 408.736 251.286 410.647Q253.046 412.558 256.15 412.558Q259.265 412.558 260.762 410.785Q262.26 409.011 262.26 406.287V405.625H266.436V406.158Q266.436 410.894 263.764 413.62Q261.093 416.347 256.15 416.347Z M280.277 416.347Q277.386 416.347 275.13 415.155Q272.873 413.962 271.593 411.743Q270.313 409.523 270.313 406.467V405.896Q270.313 402.84 271.593 400.62Q272.873 398.401 275.13 397.208Q277.386 396.016 280.277 396.016Q283.167 396.016 285.424 397.208Q287.681 398.401 288.961 400.62Q290.241 402.84 290.241 405.896V406.467Q290.241 409.523 288.961 411.743Q287.681 413.962 285.424 415.155Q283.167 416.347 280.277 416.347ZM280.277 412.765Q282.925 412.765 284.573 411.068Q286.222 409.371 286.222 406.363V406Q286.222 402.992 284.586 401.295Q282.951 399.598 280.277 399.598Q277.642 399.598 275.987 401.295Q274.332 402.992 274.332 406V406.363Q274.332 409.371 275.987 411.068Q277.642 412.765 280.277 412.765Z M295.272 415.8V396.563H299.213V399.444H299.834Q300.385 398.25 301.783 397.237Q303.182 396.223 305.949 396.223Q308.146 396.223 309.852 397.197Q311.558 398.17 312.53 399.959Q313.501 401.748 313.501 404.238V415.8H309.482V404.547Q309.482 402.031 308.237 400.842Q306.992 399.653 304.781 399.653Q302.283 399.653 300.787 401.307Q299.291 402.961 299.291 406.08V415.8Z M325.977 415.8Q324.2 415.8 323.159 414.752Q322.118 413.704 322.118 411.917V399.942H316.837V396.563H322.118V390.165H326.137V396.563H331.914V399.942H326.137V411.249Q326.137 412.421 327.258 412.421H331.254V415.8Z M336.637 415.8V396.563H340.578V398.819H341.199Q341.669 397.606 342.693 397.045Q343.716 396.485 345.249 396.485H347.552V400.094H345.103Q343.132 400.094 341.894 401.165Q340.656 402.236 340.656 404.484V415.8Z M360.076 416.347Q357.186 416.347 354.929 415.155Q352.673 413.962 351.392 411.743Q350.112 409.523 350.112 406.467V405.896Q350.112 402.84 351.392 400.62Q352.673 398.401 354.929 397.208Q357.186 396.016 360.076 396.016Q362.967 396.016 365.224 397.208Q367.48 398.401 368.76 400.62Q370.041 402.84 370.041 405.896V406.467Q370.041 409.523 368.76 411.743Q367.48 413.962 365.224 415.155Q362.967 416.347 360.076 416.347ZM360.076 412.765Q362.725 412.765 364.373 411.068Q366.021 409.371 366.021 406.363V406Q366.021 402.992 364.386 401.295Q362.75 399.598 360.076 399.598Q357.442 399.598 355.787 401.295Q354.132 402.992 354.132 406V406.363Q354.132 409.371 355.787 411.068Q357.442 412.765 360.076 412.765Z M375.072 415.8V388.458H379.091V415.8Z M398.508 415.8V399.942H393.121V396.563H398.508V392.341Q398.508 390.554 399.549 389.506Q400.589 388.458 402.367 388.458H407.308V391.837H403.648Q402.527 391.837 402.527 393.009V396.563H408.069V399.942H402.527V415.8Z M420.424 416.347Q417.534 416.347 415.277 415.155Q413.02 413.962 411.74 411.743Q410.46 409.523 410.46 406.467V405.896Q410.46 402.84 411.74 400.62Q413.02 398.401 415.277 397.208Q417.534 396.016 420.424 396.016Q423.315 396.016 425.571 397.208Q427.828 398.401 429.108 400.62Q430.388 402.84 430.388 405.896V406.467Q430.388 409.523 429.108 411.743Q427.828 413.962 425.571 415.155Q423.315 416.347 420.424 416.347ZM420.424 412.765Q423.072 412.765 424.721 411.068Q426.369 409.371 426.369 406.363V406Q426.369 402.992 424.733 401.295Q423.098 399.598 420.424 399.598Q417.79 399.598 416.134 401.295Q414.479 402.992 414.479 406V406.363Q414.479 409.371 416.134 411.068Q417.79 412.765 420.424 412.765Z M435.419 415.8V396.563H439.36V398.819H439.982Q440.452 397.606 441.476 397.045Q442.499 396.485 444.032 396.485H446.335V400.094H443.886Q441.915 400.094 440.677 401.165Q439.439 402.236 439.439 404.484V415.8Z M462.701 423.612V420.081H473.438Q474.559 420.081 474.559 418.909V413.001H473.938Q473.571 413.761 472.846 414.487Q472.12 415.212 470.912 415.676Q469.704 416.14 467.851 416.14Q465.667 416.14 463.955 415.166Q462.242 414.193 461.27 412.398Q460.299 410.603 460.299 408.138V396.563H464.318V407.83Q464.318 410.332 465.563 411.521Q466.808 412.71 469.019 412.71Q471.517 412.71 473.013 411.063Q474.509 409.416 474.509 406.297V396.563H478.528V419.729Q478.528 421.516 477.5 422.564Q476.471 423.612 474.669 423.612Z M493.505 416.347Q490.615 416.347 488.358 415.155Q486.102 413.962 484.821 411.743Q483.541 409.523 483.541 406.467V405.896Q483.541 402.84 484.821 400.62Q486.102 398.401 488.358 397.208Q490.615 396.016 493.505 396.016Q496.396 396.016 498.653 397.208Q500.909 398.401 502.189 400.62Q503.47 402.84 503.47 405.896V406.467Q503.47 409.523 502.189 411.743Q500.909 413.962 498.653 415.155Q496.396 416.347 493.505 416.347ZM493.505 412.765Q496.154 412.765 497.802 411.068Q499.45 409.371 499.45 406.363V406Q499.45 402.992 497.815 401.295Q496.179 399.598 493.505 399.598Q490.871 399.598 489.216 401.295Q487.561 402.992 487.561 406V406.363Q487.561 409.371 489.216 411.068Q490.871 412.765 493.505 412.765Z M515.856 416.14Q513.672 416.14 511.959 415.166Q510.247 414.193 509.275 412.391Q508.303 410.589 508.303 408.125V396.563H512.323V407.816Q512.323 410.318 513.568 411.514Q514.813 412.71 517.023 412.71Q519.521 412.71 521.017 411.056Q522.513 409.402 522.513 406.283V396.563H526.533V415.8H522.591V412.919H521.97Q521.42 414.087 520.021 415.114Q518.623 416.14 515.856 416.14Z M532.483 415.8V396.563H536.425V398.819H537.046Q537.516 397.606 538.54 397.045Q539.563 396.485 541.096 396.485H543.399V400.094H540.95Q538.979 400.094 537.741 401.165Q536.503 402.236 536.503 404.484V415.8Z M563.507 416.347Q561.464 416.347 559.83 415.638Q558.197 414.929 557.246 413.563Q556.296 412.197 556.296 410.246Q556.296 408.281 557.246 406.968Q558.197 405.654 559.862 404.991Q561.526 404.328 563.632 404.328H569.518V403.084Q569.518 401.389 568.495 400.366Q567.471 399.344 565.364 399.344Q563.296 399.344 562.199 400.321Q561.103 401.297 560.747 402.885L557.009 401.662Q557.478 400.11 558.506 398.838Q559.534 397.567 561.252 396.791Q562.97 396.016 565.415 396.016Q569.161 396.016 571.298 397.916Q573.436 399.817 573.436 403.354V411.277Q573.436 412.449 574.53 412.449H576.188V415.8H573.18Q571.817 415.8 570.961 415.09Q570.106 414.38 570.106 413.181V413.06H569.487Q569.208 413.665 568.572 414.448Q567.936 415.23 566.723 415.788Q565.511 416.347 563.507 416.347ZM564.12 413.019Q566.518 413.019 568.018 411.634Q569.518 410.25 569.518 407.843V407.426H563.874Q562.274 407.426 561.295 408.114Q560.316 408.802 560.316 410.13Q560.316 411.458 561.334 412.239Q562.353 413.019 564.12 413.019Z M586.945 416.14Q584.761 416.14 583.049 415.166Q581.336 414.193 580.364 412.391Q579.392 410.589 579.392 408.125V396.563H583.412V407.816Q583.412 410.318 584.657 411.514Q585.902 412.71 588.113 412.71Q590.611 412.71 592.107 411.056Q593.602 409.402 593.602 406.283V396.563H597.622V415.8H593.681V412.919H593.06Q592.509 414.087 591.11 415.114Q589.712 416.14 586.945 416.14Z M610.803 415.8Q609.025 415.8 607.984 414.752Q606.943 413.704 606.943 411.917V399.942H601.663V396.563H606.943V390.165H610.963V396.563H616.74V399.942H610.963V411.249Q610.963 412.421 612.084 412.421H616.08V415.8Z M629.786 416.347Q626.895 416.347 624.639 415.155Q622.382 413.962 621.102 411.743Q619.822 409.523 619.822 406.467V405.896Q619.822 402.84 621.102 400.62Q622.382 398.401 624.639 397.208Q626.895 396.016 629.786 396.016Q632.676 396.016 634.933 397.208Q637.19 398.401 638.47 400.62Q639.75 402.84 639.75 405.896V406.467Q639.75 409.523 638.47 411.743Q637.19 413.962 634.933 415.155Q632.676 416.347 629.786 416.347ZM629.786 412.765Q632.434 412.765 634.082 411.068Q635.731 409.371 635.731 406.363V406Q635.731 402.992 634.095 401.295Q632.459 399.598 629.786 399.598Q627.151 399.598 625.496 401.295Q623.841 402.992 623.841 406V406.363Q623.841 409.371 625.496 411.068Q627.151 412.765 629.786 412.765Z M644.781 415.8V396.563H648.722V399.444H649.343Q649.894 398.25 651.292 397.237Q652.691 396.223 655.458 396.223Q657.655 396.223 659.361 397.197Q661.067 398.17 662.039 399.959Q663.01 401.748 663.01 404.238V415.8H658.991V404.547Q658.991 402.031 657.746 400.842Q656.501 399.653 654.29 399.653Q651.792 399.653 650.296 401.307Q648.8 402.961 648.8 406.08V415.8Z M677.83 416.347Q674.939 416.347 672.682 415.155Q670.426 413.962 669.146 411.743Q667.865 409.523 667.865 406.467V405.896Q667.865 402.84 669.146 400.62Q670.426 398.401 672.682 397.208Q674.939 396.016 677.83 396.016Q680.72 396.016 682.977 397.208Q685.233 398.401 686.514 400.62Q687.794 402.84 687.794 405.896V406.467Q687.794 409.523 686.514 411.743Q685.233 413.962 682.977 415.155Q680.72 416.347 677.83 416.347ZM677.83 412.765Q680.478 412.765 682.126 411.068Q683.774 409.371 683.774 406.363V406Q683.774 402.992 682.139 401.295Q680.503 399.598 677.83 399.598Q675.195 399.598 673.54 401.295Q671.885 402.992 671.885 406V406.363Q671.885 409.371 673.54 411.068Q675.195 412.765 677.83 412.765Z M692.825 415.8V396.563H696.766V398.809H697.387Q697.922 397.805 699.135 397.014Q700.348 396.223 702.426 396.223Q704.578 396.223 705.889 397.113Q707.201 398.002 707.851 399.36H708.472Q709.136 398.028 710.415 397.125Q711.695 396.223 714.03 396.223Q715.882 396.223 717.34 396.998Q718.798 397.774 719.656 399.276Q720.514 400.778 720.514 402.971V415.8H716.495V403.281Q716.495 401.529 715.531 400.578Q714.567 399.627 712.823 399.627Q710.939 399.627 709.809 400.838Q708.679 402.049 708.679 404.328V415.8H704.66V403.281Q704.66 401.529 703.696 400.578Q702.732 399.627 700.988 399.627Q699.104 399.627 697.974 400.838Q696.844 402.049 696.844 404.328V415.8Z M735.326 416.347Q732.435 416.347 730.179 415.155Q727.922 413.962 726.642 411.743Q725.362 409.523 725.362 406.467V405.896Q725.362 402.84 726.642 400.62Q727.922 398.401 730.179 397.208Q732.435 396.016 735.326 396.016Q738.216 396.016 740.473 397.208Q742.73 398.401 744.01 400.62Q745.29 402.84 745.29 405.896V406.467Q745.29 409.523 744.01 411.743Q742.73 413.962 740.473 415.155Q738.216 416.347 735.326 416.347ZM735.326 412.765Q737.974 412.765 739.622 411.068Q741.271 409.371 741.271 406.363V406Q741.271 402.992 739.635 401.295Q738 399.598 735.326 399.598Q732.691 399.598 731.036 401.295Q729.381 402.992 729.381 406V406.363Q729.381 409.371 731.036 411.068Q732.691 412.765 735.326 412.765Z M757.676 416.14Q755.493 416.14 753.78 415.166Q752.067 414.193 751.095 412.391Q750.124 410.589 750.124 408.125V396.563H754.143V407.816Q754.143 410.318 755.388 411.514Q756.633 412.71 758.844 412.71Q761.342 412.71 762.838 411.056Q764.334 409.402 764.334 406.283V396.563H768.353V415.8H764.412V412.919H763.791Q763.24 414.087 761.842 415.114Q760.443 416.14 757.676 416.14Z M782.172 416.347Q778.507 416.347 776.078 414.706Q773.65 413.066 773.128 409.759L776.88 408.847Q777.167 410.46 777.921 411.385Q778.675 412.31 779.782 412.703Q780.889 413.097 782.172 413.097Q784.11 413.097 785.142 412.369Q786.174 411.64 786.174 410.468Q786.174 409.283 785.195 408.733Q784.215 408.183 782.319 407.843L780.979 407.607Q779.03 407.244 777.433 406.574Q775.835 405.904 774.881 404.734Q773.927 403.564 773.927 401.746Q773.927 399.006 775.975 397.511Q778.022 396.016 781.378 396.016Q784.62 396.016 786.706 397.468Q788.793 398.92 789.403 401.414L785.666 402.492Q785.327 400.735 784.192 400Q783.057 399.266 781.378 399.266Q779.712 399.266 778.778 399.87Q777.845 400.475 777.845 401.594Q777.845 402.75 778.763 403.295Q779.68 403.84 781.255 404.115L782.594 404.351Q784.7 404.715 786.402 405.346Q788.104 405.976 789.098 407.134Q790.092 408.291 790.092 410.24Q790.092 413.163 787.947 414.755Q785.801 416.347 782.172 416.347Z M810.718 416.347Q808.675 416.347 807.041 415.638Q805.407 414.929 804.457 413.563Q803.507 412.197 803.507 410.246Q803.507 408.281 804.457 406.968Q805.407 405.654 807.072 404.991Q808.737 404.328 810.843 404.328H816.729V403.084Q816.729 401.389 815.705 400.366Q814.682 399.344 812.575 399.344Q810.507 399.344 809.41 400.321Q808.313 401.297 807.958 402.885L804.22 401.662Q804.689 400.11 805.717 398.838Q806.745 397.567 808.463 396.791Q810.18 396.016 812.626 396.016Q816.371 396.016 818.509 397.916Q820.647 399.817 820.647 403.354V411.277Q820.647 412.449 821.74 412.449H823.398V415.8H820.391Q819.028 415.8 818.172 415.09Q817.317 414.38 817.317 413.181V413.06H816.698Q816.418 413.665 815.783 414.448Q815.147 415.23 813.934 415.788Q812.721 416.347 810.718 416.347ZM811.331 413.019Q813.729 413.019 815.229 411.634Q816.729 410.25 816.729 407.843V407.426H811.085Q809.485 407.426 808.506 408.114Q807.526 408.802 807.526 410.13Q807.526 411.458 808.545 412.239Q809.563 413.019 811.331 413.019Z M825.902 406.26V405.689Q825.902 402.656 827.12 400.495Q828.337 398.334 830.37 397.175Q832.402 396.016 834.839 396.016Q837.659 396.016 839.156 397.056Q840.653 398.096 841.346 399.303H841.967V396.563H845.881V419.729Q845.881 421.516 844.86 422.564Q843.838 423.612 842.036 423.612H829.068V420.081H840.755Q841.889 420.081 841.889 418.909V412.777H841.268Q840.837 413.511 840.058 414.244Q839.28 414.978 838.013 415.455Q836.745 415.933 834.839 415.933Q832.402 415.933 830.363 414.774Q828.324 413.615 827.113 411.447Q825.902 409.279 825.902 406.26ZM835.944 412.402Q838.552 412.402 840.246 410.751Q841.94 409.101 841.94 406.156V405.793Q841.94 402.809 840.259 401.178Q838.577 399.547 835.944 399.547Q833.351 399.547 831.65 401.178Q829.949 402.809 829.949 405.793V406.156Q829.949 409.101 831.65 410.751Q833.351 412.402 835.944 412.402Z M860.638 416.347Q857.734 416.347 855.541 415.116Q853.348 413.886 852.124 411.647Q850.901 409.408 850.901 406.416V405.947Q850.901 402.941 852.111 400.709Q853.322 398.477 855.489 397.246Q857.656 396.016 860.492 396.016Q863.275 396.016 865.363 397.231Q867.452 398.446 868.624 400.637Q869.796 402.828 869.796 405.769V407.299H854.971Q855.062 409.837 856.694 411.327Q858.326 412.816 860.74 412.816Q863.015 412.816 864.162 411.808Q865.31 410.8 865.913 409.474L869.267 411.173Q868.706 412.285 867.671 413.49Q866.636 414.695 864.945 415.521Q863.253 416.347 860.638 416.347ZM855.01 404.201H865.712Q865.556 402.029 864.139 400.788Q862.722 399.547 860.466 399.547Q858.173 399.547 856.756 400.788Q855.338 402.029 855.01 404.201Z M874.649 415.8V396.563H878.59V399.444H879.211Q879.762 398.25 881.16 397.237Q882.559 396.223 885.326 396.223Q887.523 396.223 889.229 397.197Q890.935 398.17 891.907 399.959Q892.878 401.748 892.878 404.238V415.8H888.859V404.547Q888.859 402.031 887.614 400.842Q886.369 399.653 884.158 399.653Q881.66 399.653 880.164 401.307Q878.668 402.961 878.668 406.08V415.8Z M905.354 415.8Q903.577 415.8 902.536 414.752Q901.495 413.704 901.495 411.917V399.942H896.214V396.563H901.495V390.165H905.514V396.563H911.291V399.942H905.514V411.249Q905.514 412.421 906.635 412.421H910.631V415.8Z M923.882 416.347Q920.216 416.347 917.788 414.706Q915.359 413.066 914.838 409.759L918.59 408.847Q918.877 410.46 919.631 411.385Q920.384 412.31 921.492 412.703Q922.599 413.097 923.882 413.097Q925.82 413.097 926.852 412.369Q927.884 411.64 927.884 410.468Q927.884 409.283 926.904 408.733Q925.925 408.183 924.029 407.843L922.689 407.607Q920.74 407.244 919.142 406.574Q917.545 405.904 916.591 404.734Q915.637 403.564 915.637 401.746Q915.637 399.006 917.684 397.511Q919.732 396.016 923.087 396.016Q926.329 396.016 928.416 397.468Q930.503 398.92 931.112 401.414L927.376 402.492Q927.036 400.735 925.902 400Q924.767 399.266 923.087 399.266Q921.421 399.266 920.488 399.87Q919.554 400.475 919.554 401.594Q919.554 402.75 920.472 403.295Q921.39 403.84 922.964 404.115L924.304 404.351Q926.409 404.715 928.111 405.346Q929.813 405.976 930.808 407.134Q931.802 408.291 931.802 410.24Q931.802 413.163 929.656 414.755Q927.511 416.347 923.882 416.347Z M938.935 416.347Q937.565 416.347 936.648 415.449Q935.731 414.552 935.731 413.15Q935.731 411.747 936.648 410.856Q937.565 409.964 938.935 409.964Q940.305 409.964 941.209 410.862Q942.113 411.759 942.113 413.161Q942.113 414.564 941.209 415.455Q940.305 416.347 938.935 416.347Z" fill="#6B665C"/><rect x="90.00" y="491.40" width="120.00" height="7.56" rx="3.78" fill="url(#sheen-s20)"/></svg>